<svg width="16" height="16" viewBox="0 0 16 16" fill="none" xmlns="http://www.w3.org/2000/svg">
<path fill-rule="evenodd" clip-rule="evenodd" d="M1 16C0.447715 16 0 15.5523 0 15V1C0 0.447715 0.447715 0 1 0H15C15.5523 0 16 0.447715 16 1V15C16 15.5523 15.5523 16 15 16H1ZM14 2H2V14H14V2Z" fill="#B0B0B0"/>
<path fill-rule="evenodd" clip-rule="evenodd" d="M10.9999 4.02805C11.5522 4.02805 11.9999 4.47576 11.9999 5.02805V9.02805C11.9999 9.58033 11.5522 10.028 10.9999 10.028C10.4476 10.028 9.99988 9.58033 9.99988 9.02805V6.02805H6.99988C6.44759 6.02805 5.99988 5.58033 5.99988 5.02805C5.99988 4.47576 6.44759 4.02805 6.99988 4.02805H10.9999Z" fill="#B0B0B0"/>
<rect width="7.2226" height="2" rx="1" transform="matrix(0.707107 -0.707107 -0.707107 -0.707107 6.87061 10.5214)" fill="#B0B0B0"/>
</svg>
