<svg width="16" height="16" viewBox="0 0 16 16" fill="none" xmlns="http://www.w3.org/2000/svg">
<path fill-rule="evenodd" clip-rule="evenodd" d="M1 16C0.447715 16 0 15.5523 0 15V5C0 4.48223 0.3935 4.05637 0.897756 4.00516C0.931373 4.00175 0.965482 4 1 4H11C11.5523 4 12 4.44772 12 5V15C12 15.5523 11.5523 16 11 16H1ZM10 6H2V14H10V6Z" fill="#B0B0B0"/>
<path fill-rule="evenodd" clip-rule="evenodd" d="M14 12H15C15.5523 12 16 11.5523 16 11V1C16 0.447715 15.5523 0 15 0H5C4.96548 0 4.93137 0.00174889 4.89776 0.00516289C4.3935 0.0563729 4 0.482233 4 1V2H6H14V10V12Z" fill="#B0B0B0"/>
</svg>
