<svg width="66" height="59" viewBox="0 0 66 59" fill="none" xmlns="http://www.w3.org/2000/svg">
<rect y="15" width="15" height="29" rx="2" fill="#696969"/>
<path d="M18 15.2706L29.5732 3.48862C30.8279 2.21132 33 3.09969 33 4.89013V54.2677C33 56.0357 30.8741 56.9342 29.6062 55.702L18 44.4235V15.2706Z" fill="#696969"/>
<path fill-rule="evenodd" clip-rule="evenodd" d="M41 55.2327C41 56.1084 41.7458 56.8034 42.6137 56.6873C55.8167 54.9213 66 43.6134 66 29.927C66 16.2407 55.8167 4.93279 42.6137 3.16678C41.7458 3.05069 41 3.74574 41 4.62139V4.62139C41 5.40565 41.6033 6.05373 42.3799 6.16319C54.0344 7.80587 63 17.8194 63 29.927C63 42.0347 54.0344 52.0482 42.3799 53.6909C41.6033 53.8004 41 54.4484 41 55.2327V55.2327Z" fill="#696969"/>
<path fill-rule="evenodd" clip-rule="evenodd" d="M41 46.1232C41 47.027 41.7876 47.7355 42.6727 47.5521C50.8525 45.8563 57 38.6096 57 29.927C57 21.2445 50.8525 13.9978 42.6727 12.302C41.7877 12.1185 41 12.8271 41 13.7309V13.7309C41 14.4913 41.5656 15.1259 42.3074 15.2929C49.0004 16.7991 54 22.7792 54 29.927C54 37.0749 49.0004 43.055 42.3074 44.5612C41.5656 44.7281 41 45.3628 41 46.1232V46.1232Z" fill="#696969"/>
<path fill-rule="evenodd" clip-rule="evenodd" d="M41 37.8073C41 38.7994 41.917 39.5466 42.8331 39.1661C46.4538 37.6622 49 34.092 49 29.927C49 25.7621 46.4538 22.1919 42.8331 20.688C41.917 20.3075 41 21.0547 41 22.0468V22.0468C41 22.741 41.4655 23.3367 42.0883 23.6434C44.4056 24.7845 46 27.1696 46 29.927C46 32.6845 44.4056 35.0696 42.0883 36.2107C41.4655 36.5174 41 37.1131 41 37.8073V37.8073Z" fill="#696969"/>
</svg>
